<svg width="1080" height="1080" viewBox="0 0 1080 1080" fill="none" xmlns="http://www.w3.org/2000/svg">
<g clip-path="url(#clip0_2_114)">
<rect x="636.491" y="312.123" width="183.818" height="902.124" transform="rotate(45 636.491 312.123)" fill="white"/>
<rect x="812.463" y="136.151" width="183.818" height="183.818" transform="rotate(45 812.463 136.151)" fill="white"/>
<path d="M423.96 272.75L331.952 314.305L290.397 406.314L248.842 314.305L156.833 272.75L248.842 231.195L290.397 139.187L331.952 231.195L423.96 272.75Z" fill="white"/>
<path d="M630.984 0L657.303 58.2719L715.575 84.5902L657.303 110.909L630.984 169.18L604.666 110.909L546.394 84.5902L604.666 58.2719L630.984 0Z" fill="white"/>
<path d="M971.072 593.851L1005.36 669.757L1081.26 704.041L1005.36 738.324L971.072 814.23L936.789 738.324L860.882 704.041L936.789 669.757L971.072 593.851Z" fill="white"/>
</g>
<defs>
<clipPath id="clip0_2_114">
<rect width="1080" height="1080" fill="white"/>
</clipPath>
</defs>
</svg>
