<svg width="1080" height="1080" viewBox="0 0 1080 1080" fill="none" xmlns="http://www.w3.org/2000/svg">
<path fill-rule="evenodd" clip-rule="evenodd" d="M503.785 117.969L380.093 445.263C433.097 443.661 484.041 450.15 507.48 457.118C461.087 455.461 412.145 461.453 375.065 467.168H375.379C288.698 478.737 231.125 499.167 231.125 522.438C231.125 542.527 274.024 560.497 341.512 572.479C327.031 614.766 315.337 673.641 320.499 742.477C331.918 722.593 357.752 682.825 369.742 682.825C379.019 711.231 389.867 794.46 359.037 900.13C380.447 886.637 424.122 852.408 427.548 823.434C443.248 849.709 466.513 930.808 433.971 1045C488.209 1028.67 606.961 961.487 648.067 823.434C660.2 846.159 690.887 893.312 716.578 900.13C706.587 845.448 690.459 725.433 705.874 682.825C721.574 690.636 752.975 713.503 752.975 742.477C758.124 716.291 759.42 652.138 734.147 573.284C804.292 561.309 849.155 542.981 849.155 522.438C849.155 499.167 791.582 478.737 704.902 467.168H718.515L583.19 140.644L545.165 117.969H583.19V25L503.785 117.969ZM500.629 326.979C498.787 323.605 493.943 323.605 492.1 326.979L483.597 342.55C483.199 343.281 482.619 343.896 481.914 344.338L466.694 353.879C463.657 355.783 463.657 360.208 466.694 362.113L481.914 371.653C482.619 372.095 483.199 372.711 483.597 373.441L492.1 389.013C493.943 392.386 498.787 392.386 500.629 389.013L509.132 373.441C509.531 372.711 510.111 372.095 510.816 371.653L526.036 362.113C529.073 360.208 529.073 355.783 526.036 353.879L510.816 344.338C510.111 343.896 509.531 343.281 509.132 342.55L500.629 326.979ZM554.293 233.154C556.169 229.947 560.805 229.947 562.681 233.154L575.042 254.282C575.463 255.002 576.063 255.601 576.782 256.022L597.911 268.384C601.118 270.26 601.118 274.895 597.911 276.771L576.782 289.133C576.063 289.554 575.463 290.153 575.042 290.873L562.681 312.001C560.805 315.208 556.169 315.208 554.293 312.001L541.932 290.873C541.511 290.153 540.911 289.554 540.192 289.133L519.063 276.771C515.856 274.895 515.856 270.26 519.063 268.384L540.192 256.022C540.911 255.601 541.511 255.002 541.932 254.282L554.293 233.154ZM452.36 572.981C451.201 576.117 449.42 579.232 447.143 582.286C431.759 562.701 423.275 538.416 423.275 513.256C450.922 506.826 478.985 502.814 507.151 501.22L498.213 539.595C488.428 539.487 480.137 542.517 473.298 547.247C462.732 554.555 456.361 565.433 452.818 571.969L452.553 572.459L452.36 572.981ZM556.602 500.904C545.512 500.418 534.409 500.307 523.313 500.571L513.947 540.783L538.594 554.221L566.945 540.552L556.602 500.904ZM646.784 513.256C622.433 507.592 597.759 503.805 572.976 501.893L582.814 539.605C591.915 539.821 599.681 542.773 606.149 547.247C616.715 554.555 623.086 565.433 626.629 571.969L626.894 572.459L627.087 572.981C627.365 573.732 627.678 574.482 628.026 575.23C640.168 557.01 646.784 535.474 646.784 513.256ZM436.872 612.791C449.015 604.301 461.431 592.828 466.778 578.941C470.168 572.741 475.026 565.013 482.169 560.072C488.918 555.403 498.413 552.72 512.714 558.374C521.752 561.948 526.729 566.771 529.314 571.596C531.078 574.888 531.924 578.547 531.928 582.423C531.93 584.281 531.737 586.189 531.36 588.13C528.945 600.537 519.307 612.438 509.179 616.849C497.552 621.912 478.21 626.683 457.898 627.74C443.94 628.466 430.181 627.404 418.428 623.907C424.357 620.824 430.729 617.087 436.872 612.791ZM548.088 588.13C547.713 586.205 547.521 584.312 547.52 582.468C547.517 578.576 548.363 574.901 550.133 571.596C552.718 566.771 557.695 561.948 566.733 558.374C581.035 552.72 590.529 555.403 597.278 560.072C604.422 565.013 609.28 572.741 612.67 578.942C618.017 592.829 630.432 604.301 642.575 612.791C648.719 617.087 655.091 620.824 661.02 623.907C649.266 627.404 635.507 628.466 621.55 627.74C601.237 626.683 581.895 621.912 570.268 616.849C560.14 612.438 550.502 600.537 548.088 588.13Z" fill="#4051B5"/>
<path d="M169.701 368.639C176.191 371.4 176.191 380.6 169.701 383.361L141.832 395.22C139.916 396.036 138.393 397.567 137.587 399.487L125.877 427.409C123.134 433.95 113.866 433.95 111.123 427.409L99.4128 399.487C98.6072 397.567 97.0843 396.036 95.1677 395.22L67.2991 383.361C60.809 380.6 60.809 371.4 67.2991 368.639L95.1677 356.78C97.0843 355.964 98.6072 354.433 99.4128 352.513L111.123 324.591C113.866 318.05 123.134 318.05 125.877 324.591L137.587 352.513C138.393 354.433 139.916 355.964 141.832 356.78L169.701 368.639Z" fill="#4051B5"/>
<path d="M130.555 692.631C137.071 695.383 137.071 704.617 130.555 707.369L117.247 712.991C115.329 713.802 113.802 715.329 112.991 717.247L107.369 730.555C104.617 737.071 95.3831 737.071 92.6306 730.555L87.0088 717.247C86.1982 715.329 84.6713 713.802 82.7525 712.991L69.4447 707.369C62.9289 704.617 62.9289 695.383 69.4447 692.631L82.7525 687.009C84.6713 686.198 86.1982 684.671 87.0088 682.753L92.6306 669.445C95.3831 662.929 104.617 662.929 107.369 669.445L112.991 682.753C113.802 684.671 115.329 686.198 117.247 687.009L130.555 692.631Z" fill="#4051B5"/>
<path d="M281.687 916.638C288.18 919.399 288.18 928.601 281.687 931.362L248.912 945.3C246.995 946.115 245.471 947.645 244.665 949.566L230.877 982.422C228.133 988.961 218.867 988.961 216.123 982.422L202.335 949.566C201.529 947.645 200.005 946.115 198.088 945.3L165.313 931.362C158.82 928.601 158.82 919.399 165.313 916.638L198.088 902.7C200.005 901.885 201.529 900.355 202.335 898.434L216.123 865.578C218.867 859.039 228.133 859.039 230.877 865.578L244.665 898.434C245.471 900.355 246.995 901.885 248.912 902.7L281.687 916.638Z" fill="#4051B5"/>
<path d="M289.975 75.1965C293.873 66.5668 306.127 66.5668 310.025 75.1965L322.246 102.256C323.349 104.697 325.303 106.651 327.744 107.754L354.804 119.975C363.433 123.873 363.433 136.127 354.804 140.025L327.744 152.246C325.303 153.349 323.349 155.303 322.246 157.744L310.025 184.804C306.127 193.433 293.873 193.433 289.975 184.804L277.754 157.744C276.651 155.303 274.697 153.349 272.256 152.246L245.196 140.025C236.567 136.127 236.567 123.873 245.196 119.975L272.256 107.754C274.697 106.651 276.651 104.697 277.754 102.256L289.975 75.1965Z" fill="#4051B5"/>
<path d="M901.299 671.639C894.809 674.4 894.809 683.6 901.299 686.361L929.168 698.22C931.084 699.036 932.607 700.567 933.413 702.487L945.123 730.409C947.866 736.95 957.134 736.95 959.877 730.409L971.587 702.487C972.393 700.567 973.916 699.036 975.832 698.22L1003.7 686.361C1010.19 683.6 1010.19 674.4 1003.7 671.639L975.832 659.78C973.916 658.964 972.393 657.433 971.587 655.513L959.877 627.591C957.134 621.05 947.866 621.05 945.123 627.591L933.413 655.513C932.607 657.433 931.084 658.964 929.168 659.78L901.299 671.639Z" fill="#4051B5"/>
<path d="M910.445 347.631C903.929 350.383 903.929 359.617 910.445 362.369L923.753 367.991C925.671 368.802 927.198 370.329 928.009 372.247L933.631 385.555C936.383 392.071 945.617 392.071 948.369 385.555L953.991 372.247C954.802 370.329 956.329 368.802 958.247 367.991L971.555 362.369C978.071 359.617 978.071 350.383 971.555 347.631L958.247 342.009C956.329 341.198 954.802 339.671 953.991 337.753L948.369 324.445C945.617 317.929 936.383 317.929 933.631 324.445L928.009 337.753C927.198 339.671 925.671 341.198 923.753 342.009L910.445 347.631Z" fill="#4051B5"/>
<path d="M721.313 121.638C714.82 124.399 714.82 133.601 721.313 136.362L754.088 150.3C756.005 151.115 757.529 152.645 758.335 154.566L772.123 187.422C774.867 193.961 784.133 193.961 786.877 187.422L800.665 154.566C801.471 152.645 802.995 151.115 804.912 150.3L837.687 136.362C844.18 133.601 844.18 124.399 837.687 121.638L804.912 107.7C802.995 106.885 801.471 105.355 800.665 103.434L786.877 70.5777C784.133 64.0387 774.867 64.0387 772.123 70.5777L758.335 103.434C757.529 105.355 756.005 106.885 754.088 107.7L721.313 121.638Z" fill="#4051B5"/>
<path d="M864.291 879.143C861.456 872.867 852.544 872.867 849.709 879.143L834.287 913.289C833.485 915.064 832.064 916.485 830.289 917.287L796.143 932.709C789.867 935.544 789.867 944.456 796.143 947.291L830.289 962.713C832.064 963.515 833.485 964.936 834.287 966.711L849.709 1000.86C852.544 1007.13 861.456 1007.13 864.291 1000.86L879.713 966.711C880.515 964.936 881.936 963.515 883.711 962.713L917.857 947.291C924.133 944.456 924.133 935.544 917.857 932.709L883.711 917.287C881.936 916.485 880.515 915.064 879.713 913.289L864.291 879.143Z" fill="#4051B5"/>
</svg>
